<svg width="24" height="24" viewBox="0 0 24 24" fill="none" xmlns="http://www.w3.org/2000/svg">
<path d="M7.66557 0.997499C7.46579 0.999467 7.27173 1.05928 7.10607 1.17478C6.42123 1.65234 6.08729 3.12033 7.6231 4.45462C7.58213 5.52595 9.58182 5.71978 8.78771 4.14258C9.50842 2.04642 8.53154 0.989295 7.66553 0.997545L7.66557 0.997499ZM19.6304 1.44581C19.3401 1.44619 19.0212 1.581 18.8439 1.85011C17.7587 3.49645 18.9317 4.33523 20.0567 2.55023C20.5191 1.81664 20.1144 1.44515 19.6305 1.44576L19.6304 1.44581ZM17.6749 4.42087C14.7021 7.08726 12.4704 10.91 6.06456 8.21484C6.9354 10.7223 5.74731 11.5472 4.59676 11.7905C4.1821 11.5043 3.77631 11.1252 3.40735 10.6523L2.50351 9.49359L2.62656 10.9584C2.86721 13.8443 3.91918 15.9766 5.66321 17.3511C7.40729 18.7255 9.79506 19.3301 12.6593 19.3301C17.1306 19.3301 21.1798 16.4752 22.6701 12.3926L22.9206 11.7056L22.1983 11.808C21.948 11.8435 21.7511 11.8335 21.5978 11.7949L23.0831 8.97506C22.4117 9.26264 21.7071 9.61223 21.022 9.92428C21.1031 9.29972 21.2916 8.51147 21.6183 7.56731L22.1017 6.16692L20.9342 7.07812C19.7406 8.00953 18.4573 9.12248 17.1945 10.043C16.7751 9.20569 16.8371 7.5082 17.6749 4.42087ZM1.55579 6.55809C1.13964 6.55777 0.711479 7.09556 0.820417 7.62159C1.10898 9.01509 2.49826 8.61487 2.17248 7.25831C2.05093 6.7523 1.80549 6.55828 1.55579 6.55809ZM20.3687 8.66306C20.0775 9.79425 20.009 10.6803 20.1842 11.3745C20.3049 11.8523 20.5713 12.2513 20.9606 12.4761C21.1523 12.5867 21.3628 12.6543 21.5875 12.6856C20.186 13.656 18.1412 12.9954 19.0783 10.4956C15.0851 15.8696 10.9358 16.4176 9.60226 12.3296C8.91728 16.3904 4.66501 15.4919 3.70773 12.2198C4.73945 13.0776 5.92482 13.4772 7.01973 13.2628C7.75346 13.119 8.4249 12.6818 8.90645 11.9766C9.18723 11.5655 9.40435 11.0642 9.55393 10.4766C10.1637 11.4953 10.8665 12.1548 11.6545 12.4966C12.7289 12.9627 13.8917 12.8066 15.0149 12.3457C16.8527 11.5917 18.6879 10.0421 20.3688 8.66311L20.3687 8.66306ZM20.0875 17.0859C20.6217 17.444 20.9357 17.8459 20.9357 18.2637C20.9357 19.7999 16.9246 21.0557 12.0119 21.0557C7.09918 21.0557 3.11439 19.7999 3.11439 18.2637C3.11439 17.8584 3.4036 17.4621 3.90835 17.1138C2.04273 17.7372 0.868792 18.5773 0.868792 19.4955C0.868792 21.4184 5.86318 22.9717 12.0119 22.9717C18.1607 22.9717 23.1535 21.4184 23.1535 19.4956C23.1535 18.5678 21.9867 17.7126 20.0876 17.0859H20.0875Z" fill="#9CD9E0"/>
</svg>
